<?xml version="1.0" encoding="UTF-8" standalone="no"?>
<svg
   viewBox="0 0 64 64"
   version="1.1"
   id="svg19"
   sodipodi:docname="email.svg"
   inkscape:version="1.3.2 (091e20ef0f, 2023-11-25, custom)"
   xmlns:inkscape="http://www.inkscape.org/namespaces/inkscape"
   xmlns:sodipodi="http://sodipodi.sourceforge.net/DTD/sodipodi-0.dtd"
   xmlns="http://www.w3.org/2000/svg"
   xmlns:svg="http://www.w3.org/2000/svg">
  <path
     d="m 33.475,36.652 c -0.781,0.781 -2.046,0.781 -2.828,0 L 29.067,35.072 22.985,41 h 18.102 l -6.08,-5.879 z M 44.206,23 H 19.891 L 32,35 Z M 18,24.006 V 41 h 2.061 l 7.528,-7.405 z M 44.061,41 H 46 V 24.128 l -9.468,9.467 z M 32,0 C 14.327,0 0,14.327 0,32 0,49.673 14.327,64 32,64 49.673,64 64,49.673 64,32 64,14.327 49.673,0 32,0 Z m 16,41 c 0,1.104 -0.896,2 -2,2 H 18 c -1.104,0 -2,-0.896 -2,-2 V 23 c 0,-1.104 0.896,-2 2,-2 h 28 c 1.104,0 2,0.896 2,2 z"
     id="path1"
     style="display:inline;fill-opacity:1;fill:#94e2d5"
     inkscape:label="path1" />
</svg>
